<?xml version="1.0" encoding="UTF-8" standalone="no"?>
<!-- Created with Inkscape (http://www.inkscape.org/) -->

<svg
   width="850"
   height="850"
   viewBox="0 0 224.89584 224.89584"
   version="1.1"
   id="svg1"
   xml:space="preserve"
   xmlns="http://www.w3.org/2000/svg"
   xmlns:svg="http://www.w3.org/2000/svg"><defs
     id="defs1" /><g
     id="layer1"><path
       style="fill:#000000"
       d="m 102.68592,221.69394 c -15.055241,-1.7029 -28.700633,-2.87093 -40.348961,-11.83687 -0.927767,-0.71412 0.09849,-3.63348 0.39927,-5.41984 1.599814,-5.90255 1.445298,-7.1389 2.35203,-10.59493 l 0.77301,-2.94635 c 1.242491,-4.88651 2.124341,-7.60926 2.16645,-8.13615 -0.001,-0.16969 -1.5824,-2.37235 -3.51372,-4.8948 -1.93133,-2.52245 -3.96143,-5.20576 -4.51133,-5.96291 -0.54991,-0.75715 -1.48984,-1.65012 -2.08875,-1.98437 -2.09029,-1.16662 -2.53916,-3.25423 -1.07409,-4.99538 l 0.67575,-0.80308 -0.8966,-0.93209 c -1.11014,-1.15406 -1.4799,-1.3575 -3.35508,-1.84592 -0.82214,-0.21414 -1.72029,-0.59237 -1.99588,-0.84051 -0.42815,-0.38551 -6.15394,-7.13467 -7.32146,-8.63003 -0.38121,-0.48825 -0.34416,-0.50016 1.06019,-0.34087 0.80036,0.0908 1.90169,0.24474 2.44739,0.34212 l 0.99219,0.17705 v -1.81328 c 0,-1.78888 0.006,-1.80448 0.45189,-1.1591 0.24854,0.3598 1.56349,2.05728 2.92212,3.77216 1.86167,2.34984 2.75603,3.25683 3.63032,3.6816 1.07281,0.52121 1.1731,0.65826 1.33313,1.82181 0.0952,0.69201 0.37154,1.61128 0.61415,2.04283 0.52417,0.9324 1.78589,2.43266 2.04587,2.43266 0.2669,0 2.49627,-2.20038 2.49627,-2.46381 0,-0.12247 -0.74414,-1.08644 -1.65364,-2.14216 -1.42606,-1.6553 -1.88881,-2.0078 -3.36228,-2.5612 -1.92146,-0.72165 -2.63095,-1.4608 -7.15751,-7.45662 l -2.4427,-3.23558 0.80041,-0.081 c 0.44023,-0.0446 1.49227,0.0996 2.33786,0.32046 1.88212,0.49149 1.94335,0.4242 1.94881,-2.14206 0.002,-1.04644 0.10779,-1.96673 0.23458,-2.04509 0.12679,-0.0784 1.78958,1.98271 3.69509,4.58015 3.53566,4.81952 3.99019,5.72847 4.00541,8.00975 0.005,0.76328 0.33888,1.41759 1.57057,3.07877 0.86026,1.16023 1.66393,2.16882 1.78594,2.24132 0.12201,0.0725 0.67957,-0.31045 1.23902,-0.85099 l 1.01718,-0.98282 -1.11452,-1.30174 c -0.61299,-0.71595 -1.56209,-1.52646 -2.10911,-1.80112 -0.89616,-0.44996 -1.00951,-0.6253 -1.14529,-1.77171 -0.19067,-1.60993 -0.52261,-2.23995 -2.94076,-5.58154 -1.21545,-1.67961 -1.85846,-2.78739 -1.68142,-2.89681 0.15765,-0.0974 0.35867,-1.22445 0.44669,-2.50446 l 0.16005,-2.32731 1.08556,1.30832 c 0.59706,0.71957 2.29371,2.95852 3.77032,4.97545 l 2.68474,3.66713 v 1.77117 c 0,1.51775 0.11146,1.93947 0.77897,2.94745 1.54938,2.33965 1.37088,2.25446 3.02659,1.44439 2.25153,-1.10157 3.17108,-0.74299 4.40131,1.71626 0.67306,1.34548 2.11079,3.1062 2.11397,2.5889 0.003,-0.5515 2.47214,-5.77246 3.47612,-7.3514 0.50891,-0.80036 1.05471,-2.11005 1.21288,-2.91041 0.36298,-1.83674 0.27859,-5.76907 -0.14016,-6.53105 -0.17468,-0.31785 -0.32278,-1.15129 -0.32912,-1.85208 -0.0249,-2.75095 -0.32893,-3.47831 -2.18059,-5.21638 -2.0719,-1.9448 -2.8033,-3.31061 -3.02094,-5.64135 -0.13609,-1.45734 -0.20543,-1.64693 -0.40725,-1.1135 -0.37933,1.00265 -0.0984,3.96071 0.47847,5.03767 0.28139,0.52536 0.97377,1.62488 1.53861,2.44338 1.55807,2.2578 1.71996,4.16248 0.50659,5.96046 l -0.46911,0.69514 -0.16284,-1.67106 c -0.192,-1.97033 -0.6085,-2.61416 -2.78204,-4.30057 -2.09504,-1.62551 -2.78407,-2.92069 -2.98674,-5.61424 l -0.15993,-2.1254 -0.64826,1.29938 c -0.83804,1.67977 -1.02285,3.93942 -0.4252,5.19888 0.24212,0.51022 0.95623,1.53221 1.58692,2.27109 2.02303,2.37004 2.39318,3.15421 2.39518,5.07421 0.003,2.85127 -1.36836,4.76391 -3.70239,5.16388 -1.03482,0.17734 -1.04507,0.1716 -0.46151,-0.25836 0.77206,-0.56884 1.38782,-1.77212 1.38657,-2.70957 -0.002,-1.35305 -0.87916,-2.32906 -3.19528,-3.55456 -4.72408,-2.49959 -6.438,-5.09025 -6.45296,-9.75389 -0.006,-1.85734 0.12447,-2.85891 0.49961,-3.83646 0.63768,-1.66168 2.38338,-4.60753 3.58278,-6.0459 1.25065,-1.49983 0.12214,-0.58858 -2.06564,1.66795 -1.96781,2.02965 -2.85613,3.44525 -3.36756,5.36644 -0.41703,1.56654 -0.48065,4.33183 -0.13402,5.82453 0.12673,0.54571 0.18844,0.99219 0.13714,0.99219 -0.32144,0 -1.44155,-2.50368 -1.70695,-3.81536 -0.58732,-2.90272 0.24537,-5.92536 2.42605,-8.80643 1.19513,-1.57898 1.25164,-1.71546 0.64758,-1.56385 -2.53174,0.63542 -7.0221,1.50511 -9.03397,1.74968 -2.07543,0.25229 -2.89451,0.21655 -6.18323,-0.26978 -2.085,-0.30833 -4.10407,-0.67923 -4.48684,-0.82422 -1.79497,-0.67994 -2.94489,-2.62877 -2.94489,-4.99087 0,-2.06393 0.42176,-2.875 3.25525,-6.26001 l 2.25015,-2.68812 -1.02384,-0.82278 c -1.20523,-0.96858 -1.73208,-2.38544 -1.44859,-3.89578 l 0.19102,-1.01771 0.34982,1.01728 c 0.90724,2.63819 3.091,3.37714 6.24764,2.1141 0.63321,-0.25336 1.38184,-0.90816 2.04982,-1.79288 1.67607,-2.21995 4.14464,-3.58852 7.38071,-4.091858 l 1.25323,-0.19492 -1.05834,-0.31033 c -2.82282,-0.8277 -6.01346,-0.0394 -8.16565,2.017398 -0.93998,0.89834 -1.00651,0.92361 -0.82995,0.31516 0.73912,-2.547028 3.1235,-5.135658 5.63496,-6.117658 1.66846,-0.65238 4.54589,-0.8085 7.29788,-0.39596 l 1.55598,0.23325 -0.89453,-1.26608 c -0.49198,-0.69635 -1.47621,-1.81334 -2.18718,-2.48221 -1.29212,-1.21563 -2.01463,-2.45197 -2.01463,-3.44738 0,-0.29066 0.35719,-0.93528 0.79375,-1.43249 0.95847,-1.09164 0.96712,-1.23152 0.15564,-2.51697 -1.00342,-1.589533 -1.36328,-1.836043 -3.78031,-2.589633 l -2.27166,-0.70827 -1.6159,-2.23667 c -0.88874,-1.23017 -2.46756,-3.38373 -3.50848,-4.78569 -1.32983,-1.79108 -1.77707,-2.57546 -1.50411,-2.6379 0.21366,-0.0489 1.28328,0.11021 2.37692,0.35352 1.09364,0.24331 2.01973,0.40236 2.05799,0.35345 0.0383,-0.0489 0.17749,-0.59388 0.30942,-1.21103 l 0.23986,-1.12211 1.77718,2.57731 c 2.85434,4.13946 2.91412,4.20689 4.50668,5.08325 l 1.52135,0.83718 -6.1e-4,1.37115 c -5.3e-4,1.19626 0.15542,1.59968 1.22266,3.16278 l 1.22328,1.791643 0.82786,-0.54914 c 0.45532,-0.30203 1.09574,-0.68089 1.42317,-0.841923 0.32742,-0.16103 0.59531,-0.40172 0.59531,-0.53487 0,-0.30259 -1.93714,-3.57467 -2.57212,-4.34465 -0.25882,-0.31385 -1.36958,-0.99262 -2.46836,-1.50837 -1.09877,-0.51575 -2.18985,-1.15193 -2.42462,-1.41374 -0.23478,-0.2618 -1.87168,-2.61912 -3.63755,-5.2385 -2.2497,-3.33702 -3.09304,-4.78714 -2.81761,-4.84482 0.21619,-0.0453 1.21711,0.16308 2.22426,0.46302 2.67435,0.79645 2.58126,0.84402 2.94545,-1.50518 0.17484,-1.12778 0.38337,-2.27647 0.46341,-2.55263 0.10915,-0.37658 0.81044,0.51637 2.80527,3.57188 3.92058,6.00525 4.15895,6.514 4.15895,8.87649 0,1.31062 0.14563,2.25227 0.43481,2.81148 0.62849,1.21536 2.78958,4.42499 2.97745,4.42207 0.0878,-0.001 0.78692,-0.36223 1.55362,-0.80192 1.59464,-0.91451 1.62466,-0.61651 -0.39098,-3.88221 -0.89494,-1.44996 -1.41911,-2.01489 -2.18169,-2.35134 -0.95113,-0.41964 -1.01163,-0.51929 -1.15426,-1.90124 -0.0987,-0.95642 -0.41455,-1.87738 -0.91763,-2.67574 -0.42192,-0.66955 -1.49899,-2.38337 -2.3935,-3.80851 l -1.62638,-2.59115 0.90632,0.17003 c 0.88441,0.16591 0.91061,0.1454 1.08354,-0.84843 0.0975,-0.56016 0.31829,-1.67331 0.4907,-2.47367 l 0.31348,-1.45521 1.25875,1.98437 c 0.69231,1.09141 2.02692,3.22556 2.9658,4.74256 l 1.70706,2.75818 v 2.62417 2.62418 l 1.46765,2.42285 c 0.80721,1.33257 1.55136,2.41827 1.65365,2.41267 0.10229,-0.006 0.68122,-0.17005 1.2865,-0.36543 1.75499,-0.5665 2.22687,-0.2957 3.52307,2.02184 l 1.15101,2.05794 3.59499,0.0484 3.595,0.0484 -1.05833,-0.54065 c -1.60473,-0.81979 -2.65653,-1.95983 -3.46008,-3.7504 -1.45398,-3.23989 -0.80975,-6.87061 1.55169,-8.74499 0.82508,-0.6549 1.30397,-0.81457 2.71198,-0.90423 l 1.70995,-0.10888 0.005,-1.09366 c 0.0141,-3.36742 1.63077,-7.30871 3.95987,-9.65407 2.6154,-2.63367 6.08107,-3.96904 10.852201,-4.1815 2.3513,-0.10471 3.05042,-0.24533 4.5504,-0.91526 2.30917,-1.03133 3.22402,-1.10781 3.34174,-0.27937 0.05,0.35186 0.22013,0.55662 0.39714,0.47798 2.04365,-0.90784 3.71025,-1.49905 4.64888,-1.64915 l 1.14373,-0.18289 -0.14475,0.76614 c -0.0796,0.42137 -0.22291,1.35611 -0.31843,2.07719 l -0.17366,1.31105 1.22729,-1.24491 c 0.67503,-0.6847 1.3375,-1.2449 1.47218,-1.2449 0.35596,0 1.11732,2.77203 1.29624,4.71945 l 0.15404,1.67674 1.0378,-1.80904 c 0.57079,-0.99496 1.65855,-2.88059 2.41726,-4.19028 6.23777,-10.76777 9.80216,-16.92786 15.84531,-27.38437 2.14458,-3.71079 4.37893,-7.55173 4.96523,-8.53543 l 1.06599,-1.78856 -0.33207,-2.13461 c -0.54853,-3.5261398 0.0308,-6.3204598 1.68711,-8.1378998 1.826,-2.0036 5.22555,-1.75647 6.37345,0.46332 0.50788,0.98215 0.51611,1.63928 0.0349,2.79089 -0.49118,1.17556 -1.51992,1.82732 -2.80477,1.77697 -0.56408,-0.0221 -1.08239,0.0517 -1.15181,0.16404 -0.26138,0.4229098 0.67303,3.9625398 1.51798,5.7502498 0.98808,2.09055 3.97868,5.82753 6.53479,8.16571 1.86379,1.70489 7.51717,5.99652 11.19283,8.49677 13.08618,8.90147 21.63095,17.23241 27.27314,26.59063 3.36388,5.57939 6.1235,12.24757 7.14009,17.25291 0.53656,2.64183 0.52719,6.24168 -0.023,8.851423 -0.54576,2.58855 -0.54183,3.34851 0.0252,4.8827 0.57549,1.557 0.27767,2.81517 -1.07835,4.55568 -0.88155,1.13151 -0.96374,1.38112 -0.94273,2.86299 0.0127,0.89287 0.1188,1.71853 0.23586,1.8348 0.27715,0.27527 4.31389,-0.0304 4.31389,-0.32661 0,-0.12451 0.89297,-0.22639 1.98438,-0.22639 1.0914,0 1.98437,-0.0742 1.98437,-0.16484 0,-0.0907 -0.5418,-0.9241 -1.20399,-1.85208 -0.6622,-0.92799 -1.07852,-1.68725 -0.92516,-1.68725 0.31544,0 5.9279,1.53737 11.65415,3.19231 2.11005,0.60982 4.43177,1.25436 5.15938,1.4323 0.83768,0.20486 1.17734,0.38737 0.92604,0.49759 -0.94473,0.414338 -17.31771,5.694128 -17.40066,5.611178 -0.0505,-0.0505 0.3912,-0.8809 0.98152,-1.84536 0.59032,-0.96447 1.0733,-1.8073 1.0733,-1.87294 0,-0.0656 -0.9525,-0.0459 -2.11666,0.0439 -1.85571,0.1431 -2.11667,0.10946 -2.11667,-0.27286 0,-0.35019 -0.27362,-0.43532 -1.38906,-0.43216 l -1.38906,0.004 1.01864,0.86192 c 0.83319,0.705 1.01543,1.02943 1.00099,1.78201 -0.0403,2.10135 -0.97053,7.2532 -1.59048,8.80866 -0.16327,0.40966 -0.29686,1.07182 -0.29686,1.47147 0,0.80085 -0.74311,1.74904 -1.57855,2.0142 -1.01519,0.32221 -0.52588,3.24164 0.83047,4.95489 1.09738,1.38614 1.23242,2.57708 0.47547,4.19321 -0.5619,1.19967 -0.58566,1.41985 -0.2909,2.69515 0.50069,2.16628 0.65139,5.94751 0.32779,8.22521 -1.18413,8.33485 -9.08386,20.83652 -18.81428,29.77439 -3.69206,3.39133 -6.4908,5.70516 -11.10334,9.17957 -6.49944,4.89571 -11.30087,9.92841 -13.47743,14.12657 -1.28819,2.48468 -2.20368,5.45699 -2.09358,6.7972 0.0753,0.91681 0.16343,1.02687 0.87747,1.09599 2.06301,0.19971 3.04271,1.22304 3.04271,3.17819 0,2.94286 -3.5316,4.45147 -5.85135,2.49953 -1.08492,-0.91291 -1.76146,-2.35154 -2.13774,-4.5458 -0.27739,-1.61762 -0.25363,-2.19362 0.18185,-4.40843 0.44179,-2.24691 0.45586,-2.62224 0.11919,-3.17916 -0.77631,-1.28416 -7.44586,-11.97697 -9.30629,-14.92013 l -1.92337,-3.0427 -3.59241,-1.85289 c -1.97582,-1.01909 -4.08663,-2.17994 -4.69068,-2.57969 -0.60405,-0.39974 -1.15516,-0.7268 -1.2247,-0.7268 -0.0695,0 0.28867,0.74414 0.79601,1.65365 1.50251,2.69354 4.76046,9.20081 5.53225,11.04981 0.39402,0.94398 0.87388,2.07352 1.06635,2.51008 0.19247,0.43656 0.78467,1.92485 1.31601,3.30729 1.40857,3.66485 4.10541,9.09606 5.64925,11.37709 0.73868,1.0914 3.40349,4.11686 5.92179,6.72322 0,0 17.98109,8.68974 -18.1822,16.19564 -6.73225,1.22645 -9.45669,1.46305 -17.99168,1.56245 -6.13778,0.0715 -9.37639,-0.004 -11.77396,-0.27548 z m 20.63751,-4.60384 c 0,-0.13296 -0.94336,-1.02858 -2.09636,-1.99026 -9.17524,-7.6528 -18.31487,-21.43636 -23.783431,-35.86798 -2.76996,-7.30998 -4.37174,-13.24144 -5.75174,-21.29896 l -0.86098,-5.02708 -0.0256,3.22759 c -0.0759,9.5574 3.76333,23.9675 9.502371,35.66615 4.54657,9.26789 8.89552,15.51412 15.43445,22.16791 l 3.30631,3.36439 h 2.1375 c 1.17563,0 2.1375,-0.10879 2.1375,-0.24176 z m -25.568981,-0.88272 c -0.1101,-0.1819 -0.78307,-1.20136 -1.49548,-2.26545 -2.64735,-3.95422 -5.7189,-10.62917 -7.84535,-17.04914 -0.61455,-1.85539 -1.1756,-3.37343 -1.24678,-3.37343 -0.22622,0 0.2026,2.93943 0.88778,6.08541 0.86753,3.98328 2.20705,7.91176 3.92442,11.50938 1.74782,3.6614 2.76817,5.08548 3.74966,5.2333 1.61183,0.24274 2.23154,0.19989 2.02575,-0.14007 z M 81.254669,212.415 c 0,-0.23041 -0.23106,-1.33174 -0.51347,-2.44739 -3.3358,-13.17831 -4.02526,-28.67156 -1.86745,-41.96476 0.783,-4.82366 -0.4979,-1.49358 -1.97845,5.14359 -1.29249,5.79415 -1.72502,9.37278 -1.9027,15.74271 -0.11889,4.26252 -0.0499,6.57275 0.29618,9.92187 0.4563,4.41533 1.72399,11.43066 2.23966,12.3942 0.15634,0.29212 0.95559,0.75955 1.80496,1.05561 1.89943,0.66206 1.92127,0.66381 1.92127,0.15417 z m 66.264911,-0.87519 c -0.13825,-0.12969 -1.73964,-0.98355 -3.55865,-1.89745 -3.01029,-1.51243 -6.13169,-3.17283 -10.05416,-5.34822 -0.80037,-0.44388 -1.87193,-1.03762 -2.38125,-1.31943 -2.8282,-1.56481 -9.8639,-6.47685 -13.49376,-9.4208 -3.20692,-2.60091 -9.44416,-8.80509 -11.68939,-11.62741 -0.84688,-1.06456 -1.53464,-1.83846 -1.52835,-1.71979 0.0308,0.58122 2.16311,4.32645 3.68897,6.47943 6.85415,9.67116 19.44947,18.48857 34.00273,23.8038 3.10356,1.1335 5.67753,1.67247 5.01386,1.04987 z m -11.76073,-18.40846 c 0,-0.0679 -0.80367,-0.72129 -1.78594,-1.45203 -6.9601,-5.17781 -12.99197,-10.66026 -17.04992,-15.49691 -5.09261,-6.06985 -9.13194,-12.93977 -11.74143,-19.9693 -1.25667,-3.38525 -1.16111,-3.31308 -3.8659,-2.9197 l -0.97338,0.14157 0.92038,2.38125 c 2.13968,5.53589 6.48417,13.16568 10.00309,17.56742 6.22891,7.79158 13.96603,14.30531 22.24414,18.72689 2.28186,1.2188 2.24896,1.20387 2.24896,1.02081 z m 20.63104,-10.32762 c 2.03066,-2.70166 5.57653,-6.28645 11.25125,-11.37474 10.96797,-9.83453 16.88321,-17.43125 20.51465,-26.34621 2.63128,-6.45961 3.03789,-13.0159 1.147,-18.49431 -0.78897,-2.28585 -0.74207,-3.23638 0.28367,-5.74909 0.3856,-0.94459 0.6988,-2.28882 0.73903,-3.17185 l 0.0698,-1.5325 -1.5875,-0.50715 c -1.39719,-0.44635 -1.80219,-0.47051 -3.37835,-0.20158 -0.98497,0.16806 -2.13279,0.30556 -2.55072,0.30556 -0.41793,0 -1.93377,0.30543 -3.36853,0.67873 -1.43476,0.37331 -2.90631,0.61708 -3.27011,0.54172 -0.3638,-0.0754 -3.10224,0.29578 -6.08542,0.82477 -6.241,1.10667 -9.79445,1.23504 -14.15521,0.51136 -1.4552,-0.2415 -5.57238,-0.61471 -9.14928,-0.82936 -5.7081,-0.34254 -9.73961,-0.77545 -12.60316,-1.35336 -0.83411,-0.16833 -0.84606,-0.1571 -0.62477,0.58716 1.30214,4.37949 4.18222,9.10722 7.7688,12.75268 3.50836,3.56594 6.88952,5.57161 12.08951,7.17136 1.82196,0.56052 3.84844,1.14383 4.50328,1.29626 6.55519,1.52581 9.11604,2.53285 11.92257,4.6885 3.76733,2.89363 6.3421,7.90829 7.23976,14.10024 l 0.16676,1.15028 -2.85153,-2.66094 c -4.1757,-3.89661 -6.56614,-5.59274 -7.88213,-5.59274 -0.22957,0 -0.70964,0.29225 -1.06683,0.64944 -0.5278,0.52779 -0.64943,0.91476 -0.64943,2.06608 0,1.53869 0.65674,2.86614 2.82818,5.71644 1.54543,2.02859 3.25499,5.10756 3.42806,6.17402 0.14159,0.87257 0.0474,1.00313 -2.17014,3.00882 -1.27499,1.15316 -3.05678,2.78443 -3.95953,3.62505 l -1.64137,1.52838 -0.34075,-1.2638 c -0.95855,-3.55504 -4.26383,-8.5136 -7.56262,-11.3454 -0.85912,-0.7375 -2.93126,-2.27685 -4.60475,-3.42077 -4.68215,-3.2005 -7.04951,-5.12447 -9.80248,-7.96653 -3.21188,-3.31582 -5.26241,-5.90379 -7.42889,-9.37601 -1.59351,-2.55391 -4.40112,-8.03013 -4.84896,-9.45784 -0.10614,-0.33839 -0.24001,-0.56823 -0.29749,-0.51075 -0.17837,0.17837 0.86031,3.63599 2.12675,7.07966 1.91999,5.22078 6.36826,13.5644 8.81587,16.53592 1.53124,1.859 3.78044,4.07465 5.62297,5.5391 4.98499,3.96207 7.97901,7.10625 9.72552,10.2133 1.07603,1.91425 2.60441,5.93912 2.92492,7.70257 l 0.25365,1.39552 -1.91037,2.12684 c -1.0507,1.16976 -2.49609,3.01888 -3.21197,4.10915 -0.94151,1.43389 -1.32801,1.84525 -1.39702,1.48691 -0.0525,-0.27247 0.0533,-0.58732 0.23513,-0.69968 0.48286,-0.29842 0.1421,-2.64816 -0.62524,-4.31132 -1.0416,-2.25759 -2.67518,-4.05887 -5.13527,-5.66244 -2.50124,-1.63039 -2.48773,-1.61244 -8.25372,-10.97573 -1.37004,-2.22478 -3.58625,-5.77146 -4.92492,-7.88151 -1.33867,-2.11005 -3.24135,-5.14615 -4.22818,-6.74687 -0.98683,-1.60073 -2.30791,-3.70294 -2.93573,-4.67157 -0.62782,-0.96863 -2.05178,-3.28068 -3.16435,-5.13789 l -2.02286,-3.37675 0.82133,-2.40273 c 1.52184,-4.45199 2.66964,-8.72149 2.81268,-10.4624 l 0.14214,-1.72991 -0.50494,1.19062 c -0.77261,1.82175 -1.18735,1.68015 -2.11355,-0.72156 -1.82199,-4.7246 -3.4794,-12.90577 -3.48214,-17.18834 -0.001,-1.82986 -0.29077,-2.54389 -0.81795,-2.01671 -0.13279,0.1328 -0.65991,2.73585 -1.17137,5.78455 -0.88142,5.25385 -1.5956,8.42912 -2.2287,9.90873 -0.23599,0.55152 -0.26097,0.44158 -0.15032,-0.66146 0.073,-0.72761 0.25328,-2.8112 0.40066,-4.63021 0.14737,-1.81901 0.33547,-3.9026 0.418,-4.63021 0.11049,-0.97415 0.0759,-1.21829 -0.13107,-0.92604 -0.15462,0.21828 -0.28295,0.54824 -0.28518,0.73325 -0.009,0.71858 -3.90198,8.15701 -4.14319,7.91581 -0.0583,-0.0584 0.26299,-1.16506 0.7141,-2.45935 0.45111,-1.29429 0.93765,-2.76997 1.08121,-3.27929 0.14356,-0.50933 0.42016,-1.28323 0.61467,-1.71979 0.51047,-1.14569 1.23283,-3.36265 1.12937,-3.46611 -0.15153,-0.15153 -2.82835,3.34203 -4.73375,6.17809 -1.00213,1.49158 -1.88329,2.71197 -1.95815,2.71197 -0.17003,0 -3.29164,-4.80908 -3.29164,-5.07103 0,-0.10534 0.56554,-0.73162 1.25677,-1.39173 l 1.25677,-1.20021 -2.51354,0.16419 c -1.38245,0.0903 -2.55039,0.19436 -2.59541,0.23124 -0.11587,0.0949 0.68648,1.51877 2.15703,3.82796 0.69503,1.09141 2.40295,3.82984 3.79537,6.08542 1.39243,2.25557 3.27692,5.24189 4.18777,6.63626 0.91084,1.39438 1.86371,2.94219 2.11749,3.43959 0.25378,0.49739 1.00184,1.73779 1.66236,2.75644 1.7169,2.64773 2.01702,3.13348 5.47644,8.86354 1.71318,2.83766 3.38345,5.57609 3.7117,6.08542 0.73873,1.14624 7.19376,11.51139 7.77254,12.48075 2.07608,3.47706 7.53617,12.13365 11.61011,18.40699 1.20574,1.85669 3.10563,4.86408 4.22196,6.68309 1.11634,1.81901 2.67174,4.29621 3.45644,5.50489 l 1.42674,2.19759 1.15936,-2.32988 c 0.63765,-1.28144 1.87529,-3.28239 2.75032,-4.44656 z m -38.87023,-51.49228 c -0.301,-0.49237 -0.47934,-1.07381 -0.39631,-1.29209 0.61226,-1.60949 0.97498,-4.26405 1.00572,-7.36026 0.0307,-3.09204 0.0755,-3.42472 0.36519,-2.71512 0.60608,1.4843 1.18907,5.64079 1.04208,7.42954 -0.13767,1.67539 -0.80368,4.12932 -1.24829,4.59939 -0.12368,0.13076 -0.46225,-0.1607 -0.76839,-0.66146 z m -31.655341,43.2797 c -0.6527,-5.67592 -0.781,-14.74039 -0.26382,-18.63828 0.41403,-3.12039 0.41292,-3.32147 -0.02,-3.63803 -0.901,-0.65883 -0.91554,-0.63043 -1.58972,3.10452 -0.30761,1.70419 -0.45452,3.91925 -0.45622,6.87916 -0.003,5.33398 0.56104,8.93727 2.41447,15.42248 0.31302,1.09524 0.28589,0.0929 -0.0847,-3.12985 z m 38.778291,-2.70148 c -1.86359,-2.11564 -3.87066,-5.3976 -6.13312,-10.02881 -2.0385,-4.1728 -3.70042,-6.77772 -5.59167,-8.76454 -0.62214,-0.65358 -0.99101,-0.83761 -1.4941,-0.74544 -0.36741,0.0673 -1.1162,0.19567 -1.66398,0.28522 l -0.99597,0.16282 0.73139,0.97423 c 0.40226,0.53583 0.87608,1.1552 1.05293,1.37637 0.71636,0.89587 2.16915,2.99715 4.91968,7.11566 3.07593,4.60577 5.59977,7.50357 8.35814,9.59656 0.9312,0.70659 1.74499,1.2847 1.80842,1.2847 0.0634,0 -0.38285,-0.56555 -0.99172,-1.25677 z m -64.028871,-4.89479 c 3.08797,-2.691 4.30524,-3.72109 6.13814,-5.19429 3.54204,-2.84694 4.50809,-3.81806 4.30807,-4.33071 -0.37206,-0.95362 -0.054,-1.17905 -9.32596,6.60942 -3.20626,2.69325 -3.29187,2.78631 -3.07746,3.34506 0.25128,0.65483 0.86831,0.51943 1.95721,-0.42948 z m 106.603671,-5.29167 c -1.59425,-3.163 -4.79488,-6.6 -8.23787,-8.84624 -0.98034,-0.63959 -3.9569,-2.30827 -6.61458,-3.70819 -6.55605,-3.45336 -6.20672,-3.25748 -8.13944,-4.56407 -2.91933,-1.97357 -4.54307,-3.29928 -6.86159,-5.60215 -1.22726,-1.21898 -2.12796,-2.03773 -2.00157,-1.81945 0.76329,1.31817 2.68351,3.6446 4.8824,5.91524 3.29262,3.40005 6.30194,5.39398 13.80108,9.1444 7.1976,3.59962 10.64437,6.13466 12.71023,9.34817 1.00249,1.55939 1.21075,1.61911 0.46134,0.13229 z m -58.18149,-11.45185 c 3.82394,-0.51419 4.35137,-0.69752 3.41574,-1.18728 -0.35069,-0.18358 -1.35199,-0.88671 -2.22512,-1.56252 -1.56697,-1.21286 -1.60461,-1.22577 -2.91042,-0.99843 -1.61865,0.28181 -14.588951,0.38546 -17.330201,0.13849 l -1.98438,-0.17878 1.30205,0.36135 c 2.14986,0.59665 8.58959,1.44069 12.495631,1.63777 l 3.66482,0.18492 -1.85208,0.37589 c -1.30535,0.26493 -4.013001,0.38587 -9.172211,0.40968 -4.02607,0.0186 -7.16418,0.12188 -6.97359,0.22955 0.3318,0.18743 4.78497,0.85388 7.28226,1.08985 2.4493,0.23143 11.097221,-0.0715 14.287501,-0.50049 z m -9.465531,-7.77049 c 1.276981,-1.29533 2.320491,-2.45619 2.318921,-2.57968 -0.002,-0.1235 -0.49486,-0.73906 -1.0962,-1.36792 l -1.093361,-1.14337 -1.21889,1.17686 c -1.547,1.49365 -4.66754,3.73836 -6.72565,4.83799 l -1.59207,0.85063 1.82962,0.17218 c 1.00629,0.0947 2.06774,0.20914 2.35878,0.25429 0.29104,0.0452 1.06195,0.0983 1.71312,0.11814 1.15506,0.0351 1.24061,-0.0214 3.50573,-2.31912 z m 6.522951,1.94401 c 0.0905,-0.0917 -0.5783,-0.8659 -1.48611,-1.72038 l -1.65056,-1.55361 -1.30378,1.30377 c -0.71707,0.71708 -1.700721,1.55717 -2.185891,1.86687 l -0.88213,0.5631 3.672021,-0.14649 c 2.0196,-0.0806 3.74601,-0.22153 3.83645,-0.31326 z m 11.69633,-1.51458 c 0.70952,-0.47814 0.9566,-0.88247 1.19483,-1.95524 l 0.30033,-1.35245 -1.30647,-2.04794 c -0.71855,-1.12637 -1.39931,-1.94315 -1.51278,-1.81507 -0.11348,0.12809 -0.41309,0.76866 -0.6658,1.42351 -0.25271,0.65484 -0.87708,1.87938 -1.38747,2.72119 -1.07092,1.76632 -1.01216,1.94912 0.95621,2.97473 1.49241,0.77761 1.34788,0.77455 2.42115,0.0513 z m -25.138961,-2.03822 c 2.11023,-1.45371 5.75657,-4.50446 5.7847,-4.83981 0.0219,-0.2606 -2.44311,-3.86986 -2.65326,-3.88497 -0.0863,-0.006 -0.9131,1.26865 -1.83738,2.83299 -0.92427,1.56435 -1.99398,3.32053 -2.37713,3.90261 -0.38315,0.58208 -1.08927,1.7537 -1.56915,2.6036 l -0.87252,1.54526 0.78152,-0.40414 c 0.42983,-0.22227 1.66428,-1.01227 2.74322,-1.75554 z m -8.76188,-1.83691 c 0.5885,-1.00765 1.06988,-1.93039 1.06973,-2.05052 -2.1e-4,-0.16995 -1.98194,-1.43952 -2.9377,-1.882 -0.16959,-0.0785 -0.0144,4.84495 0.17126,5.43389 0.21264,0.67446 0.6541,0.28382 1.69671,-1.50137 z m 28.469531,0.0414 c 1.08884,-1.32912 2.67947,-3.99978 2.89536,-4.86128 0.12799,-0.51074 -0.0127,-0.99635 -0.52257,-1.80409 l -0.69771,-1.10523 -0.99776,1.54372 c -0.54876,0.84905 -1.7609,2.22352 -2.69364,3.05437 l -1.69589,1.51065 1.30942,1.32941 c 0.72018,0.73117 1.37342,1.32726 1.45165,1.32463 0.0782,-0.003 0.50625,-0.4491 0.95114,-0.99218 z m -45.859581,-1.31815 c -0.57263,-1.23802 -0.70541,-1.91645 -0.71296,-3.6428 -0.008,-1.87232 0.0913,-2.32283 0.84714,-3.83645 0.47102,-0.94326 1.70885,-2.72705 2.75071,-3.96398 2.01745,-2.39517 2.85994,-3.89843 2.86935,-5.11982 0.005,-0.70328 -0.058,-0.65863 -0.93882,0.66146 -0.51955,0.77861 -2.21827,2.66581 -3.77492,4.19378 -3.12317,3.06561 -4.03821,4.5411 -4.22684,6.8157 -0.16096,1.94093 0.517,3.58058 2.13015,5.15184 0.7124,0.69389 1.3998,1.26162 1.52757,1.26162 0.12777,0 -0.0844,-0.68461 -0.47138,-1.52135 z m 21.34242,-5.4314 c 0.93045,-1.4875 2.15084,-3.42721 2.71198,-4.31048 0.56113,-0.88327 1.02024,-1.74417 1.02024,-1.9131 0,-0.16893 -0.39985,-0.93453 -0.88854,-1.70134 -1.5122,-2.37278 -5.09933,-9.47874 -5.99828,-11.88236 -0.82742,-2.21234 -0.88589,-2.29118 -1.81274,-2.44448 -0.52675,-0.0871 -1.33625,-0.15972 -1.79887,-0.16132 -0.81226,-0.003 -0.85177,0.0493 -1.15078,1.51844 -0.1703,0.83674 -0.73397,3.06916 -1.2526,4.96094 -1.24636,4.54633 -1.43167,7.70532 -0.59694,10.17636 0.77487,2.29381 1.60239,3.6463 3.17981,5.19699 1.13448,1.11525 4.29429,3.2946 4.7445,3.27233 0.0828,-0.004 0.91176,-1.22449 1.84222,-2.71198 z m 23.642111,-0.58813 c 0.83675,-0.99041 1.52136,-1.94722 1.52136,-2.12625 0,-0.17903 -0.51392,-1.08349 -1.14204,-2.00992 -0.62813,-0.92642 -2.43361,-3.7511 -4.01219,-6.27706 l -2.87015,-4.59266 -0.46843,0.62102 c -0.81247,1.07711 -5.000941,8.16524 -5.000941,8.46306 0,0.33205 4.082961,6.12935 4.645801,6.59647 0.30805,0.25566 0.66404,0.0978 1.85927,-0.82427 0.81305,-0.62726 2.1228,-1.8527 2.91055,-2.7232 0.78776,-0.8705 1.43229,-1.4461 1.43229,-1.2791 0,0.50026 -1.20305,3.53977 -2.01369,5.08758 -1.32886,2.53728 -1.33146,2.51838 0.22659,1.64467 0.83136,-0.4662 2.00181,-1.5035 2.91158,-2.58034 z m -57.648781,-11.7169 c 2.14276,-0.73858 9.42722,-4.7785 12.84522,-7.12387 0.0602,-0.0413 -0.19644,-0.70054 -0.57031,-1.46496 -0.73192,-1.49645 -1.25894,-3.8565 -1.25894,-5.63761 v -1.10787 l -1.12448,0.20954 c -0.61846,0.11525 -3.2676,0.52484 -5.88698,0.91021 -9.36932,1.37842 -11.63879,2.32186 -14.86247,6.17845 -3.01873,3.61141 -3.49416,4.86708 -2.57566,6.80268 0.61188,1.28944 0.93123,1.46702 3.34864,1.86215 3.42359,0.55958 7.34711,0.31498 10.08498,-0.62872 z m 43.29472,-2.10732 c 0.62879,-0.98227 1.81698,-2.67891 2.64043,-3.77031 0.823441,-1.09141 1.570591,-2.10931 1.660331,-2.26201 0.0897,-0.15269 -0.61733,0.1152 -1.571281,0.59532 -2.75191,1.38503 -4.17896,1.16784 -7.39215,-1.12504 -0.9278,-0.66207 -1.68691,-1.13623 -1.68691,-1.05369 0,0.56423 4.70667,9.40167 5.00718,9.40167 0.10952,0 0.7136,-0.80367 1.3424,-1.78594 z m -32.44195,0.60047 c 1.58373,-0.37037 4.22235,-1.09632 5.86359,-1.61323 3.0858,-0.97186 4.34724,-1.16784 5.31316,-0.82544 0.61671,0.2186 0.56963,0.31146 1.31501,-2.59357 0.22402,-0.87313 0.46641,-1.79463 0.53863,-2.04778 0.3048,-1.06838 -4.14601,0.27384 -5.95468,1.79574 -0.47449,0.39926 -1.61284,0.92731 -2.52967,1.17346 -1.59109,0.42717 -6.43856,3.10631 -8.03279,4.43963 l -0.71568,0.59855 0.66146,-0.12698 c 0.3638,-0.0698 1.95724,-0.43001 3.54097,-0.80038 z m 58.744931,-1.03132 c 0.25038,-1.33467 1.68196,-4.04657 2.45863,-4.6575 0.8149,-0.64099 2.0904,-0.68149 3.91486,-0.1243 5.31162,1.62217 15.04683,3.02984 20.95389,3.02984 1.63369,0 4.09567,0.23004 5.99101,0.55977 4.01894,0.69919 6.24225,0.59728 12.83072,-0.58813 l 4.84794,-0.87224 -0.15222,-0.67418 c -0.0837,-0.3708 -0.22951,-1.94649 -0.32396,-3.50154 l -0.17174,-2.82736 -1.74719,-0.16467 c -0.96096,-0.0906 -2.34251,-0.28812 -3.07011,-0.43901 -2.52393,-0.5234 -8.26709,-0.58929 -10.73625,-0.12317 -3.31834,0.62643 -5.02828,0.53824 -9.46293,-0.48801 -2.1781,-0.50404 -5.78713,-1.22273 -8.02008,-1.59708 -3.44449,-0.57747 -4.40774,-0.84964 -6.3545,-1.79553 l -2.29459,-1.1149 -5.9075,0.1323 -5.90749,0.13229 0.0526,2.85757 c 0.0289,1.57166 0.2438,3.89338 0.47746,5.15937 0.58048,3.14515 2.0016,8.27495 2.24992,8.12148 0.11149,-0.0689 0.27867,-0.53016 0.3715,-1.025 z m 75.16516,-3.60405 c 0,-0.64985 -0.0367,-0.66145 -2.09462,-0.66145 -2.29783,0 -2.81672,0.34498 -1.55977,1.03699 0.4714,0.25953 1.27713,0.38694 2.19918,0.34776 1.35935,-0.0578 1.45521,-0.10541 1.45521,-0.7233 z m -8.16901,-0.82682 c -0.0909,-0.45475 -0.16536,-1.10959 -0.16536,-1.45521 0,-0.55672 -0.12069,-0.62838 -1.05834,-0.62838 -1.10891,0 -1.42291,-0.3778 -0.54546,-0.65629 0.88937,-0.28227 2.08253,-1.91289 2.56194,-3.50124 0.25416,-0.84206 0.64156,-1.67984 0.86089,-1.86174 0.71221,-0.59068 1.78319,-0.37408 2.94347,0.59531 1.17122,0.97853 2.64583,1.27953 2.64583,0.54007 0,-0.21229 -0.49342,-1.04576 -1.09648,-1.85216 -1.15393,-1.54301 -1.5704,-1.74956 -4.27899,-2.12219 -1.60876,-0.22132 -2.06792,0.0651 -4.01378,2.5039 -0.81322,1.01922 -1.84504,2.04263 -2.29294,2.27425 l -0.81437,0.42113 0.1089,2.48989 c 0.0647,1.47973 0.24146,2.62449 0.43565,2.82167 0.43963,0.4464 2.87436,1.19972 3.98144,1.23187 0.86264,0.0251 0.88735,-0.002 0.7276,-0.80088 z m 8.67654,-1.18586 c 0.24386,-0.0936 0.41851,-0.47001 0.41851,-0.90202 v -0.74142 l -2.59381,-0.006 c -2.91218,-0.006 -3.54284,0.18429 -2.95461,0.89307 0.20387,0.24565 0.61294,0.54484 0.90903,0.66485 0.63555,0.25762 3.61918,0.32206 4.22088,0.0912 z M 99.326819,110.7106 c 0.683341,-0.43336 1.242431,-0.87294 1.242431,-0.97685 0,-0.10391 -0.610321,-1.11856 -1.356271,-2.25479 -1.43553,-2.18657 -2.07922,-2.54514 -2.63987,-1.47054 -0.17083,0.32742 -1.01823,1.25982 -1.88312,2.07201 l -1.57252,1.47669 0.74933,0.49404 c 2.50989,1.6548 3.66964,1.79487 5.46002,0.65944 z m 100.072821,-1.9767 c 0.76399,-0.31922 0.91754,-0.51906 0.91754,-1.19418 v -0.8108 l -0.99218,0.46657 c -0.67261,0.31629 -1.67397,0.47305 -3.10886,0.48669 -1.16416,0.0111 -2.26549,0.0408 -2.44739,0.0662 -0.54259,0.0755 -0.37515,0.7375 0.26458,1.04603 0.88258,0.42565 4.29489,0.38721 5.36631,-0.0605 z M 88.133829,108.05296 c 0.80037,0.0267 2.04815,0.0687 2.77286,0.0934 1.87942,0.064 1.8834,-0.53372 0.0101,-1.50893 -2.20673,-1.14876 -1.92202,-1.57977 0.54846,-0.83032 0.71435,0.21671 1.68578,0.3953 2.15872,0.39687 0.72345,0.002 0.85989,-0.0944 0.85989,-0.60994 0,-0.48566 -0.31711,-0.76437 -1.5283,-1.34327 -0.84056,-0.40176 -1.82283,-0.96904 -2.18281,-1.26063 l -0.65451,-0.53016 1.29622,0.15399 c 0.71293,0.0847 1.4273,0.25428 1.5875,0.37685 0.26753,0.2047 3.26401,1.09936 3.68207,1.09936 0.24275,0 0.22384,-1.11065 -0.0256,-1.50285 -0.10921,-0.17172 -1.43466,-0.90227 -2.94546,-1.62342 -2.19367,-1.047098 -2.63495,-1.346708 -2.19104,-1.487598 0.61091,-0.19389 3.02821,0.18515 5.00398,0.784648 0.69588,0.21114 1.295,0.38519 1.33138,0.38676 0.0364,0.002 0.0662,-0.24594 0.0662,-0.55003 0,-0.755858 -0.93245,-1.471178 -2.51354,-1.928228 -3.50062,-1.01193 -6.13874,-0.9998 -9.12813,0.042 -3.61159,1.25862 -7.46704,2.713788 -8.46666,3.195608 l -0.92605,0.44635 0.0357,1.90512 c 0.0528,2.81569 0.56644,3.50184 3.06109,4.08908 1.42559,0.33559 2.55288,0.41549 4.31153,0.3056 1.30969,-0.0818 3.0361,-0.12696 3.83646,-0.10026 z m 90.619811,-2.51067 c 1.60073,-0.0143 3.68432,-0.12004 4.63021,-0.235 1.65742,-0.20143 1.77496,-0.26635 3.24115,-1.79008 0.83674,-0.86959 1.52135,-1.70068 1.52135,-1.84686 0,-0.23922 -22.3056,-0.10316 -28.31042,0.17268 -1.0914,0.0501 -6.68139,0.1 -12.42219,0.11082 -6.31135,0.0119 -10.33844,0.11527 -10.18645,0.2615 0.13824,0.13301 2.42436,0.61336 5.08026,1.06745 2.6559,0.45409 5.78251,1.06295 6.94802,1.35303 4.3698,1.08758 4.5627,1.09722 9.50466,0.47461 4.59136,-0.57843 4.63141,-0.5789 8.59896,-0.0992 2.19237,0.26504 4.58143,0.5713 5.30903,0.68059 0.72761,0.10928 1.73964,0.1262 2.24896,0.0376 0.50933,-0.0886 2.23573,-0.1728 3.83646,-0.18709 z m 21.51063,-0.71127 c 0.76451,-0.76451 -0.12514,-1.79916 -1.54704,-1.79916 -0.62705,0 -0.62787,0.0135 -0.0708,1.18165 0.45576,0.95574 1.05205,1.18333 1.61787,0.61751 z m -88.63813,-0.71508 c 1.10732,-0.56786 2.65583,-2.08916 1.81991,-1.78791 -0.26657,0.0961 -2.40969,0.18474 -4.7625,0.19706 l -4.27784,0.0224 -0.89059,1.03593 -0.89058,1.03594 h 4.00998 c 3.42127,0 4.15409,-0.0739 4.99162,-0.50342 z m -10.58998,-0.68005 0.9883,-0.91888 -1.11517,-0.007 c -0.8628,-0.005 -1.181771,0.11727 -1.409441,0.54268 -0.31936,0.59673 -0.17241,1.30224 0.27123,1.30224 0.15223,0 0.721511,-0.41349 1.265081,-0.91888 z m -46.599251,-0.50286 c 0.56651,-0.19988 2.33765,-0.51398 3.93586,-0.69801 3.59981,-0.4145 4.18965,-0.67484 2.11595,-0.93393 -1.89198,-0.23639 -4.79852,0.37332 -6.36409,1.33502 -1.20574,0.74066 -1.13529,0.80765 0.31228,0.29692 z m 16.49901,-1.63308 c 1.38244,-0.36973 2.93666,-0.96475 3.4538,-1.322248 0.70857,-0.48985 1.28508,-0.65002 2.33961,-0.65002 0.85902,0 2.18166,-0.28095 3.42536,-0.7276 l 2.02602,-0.72761 -2.11667,-0.0826 c -2.68797,-0.10495 -5.78913,0.33887 -7.59658,1.08717 -1.56089,0.64624 -5.50029,2.774158 -5.50029,2.971068 0,0.30104 1.6412,0.0744 3.96875,-0.54812 z m 30.264971,-2.038408 c -0.89903,-0.97232 -2.219141,-2.7325 -2.219141,-2.95891 0,-0.0825 1.555111,-0.14995 3.455791,-0.14995 h 3.4558 l -0.16553,-1.25677 c -0.091,-0.69122 -0.22648,-1.58248 -0.30098,-1.98057 -0.0858,-0.45854 -1.08142,-1.67055 -2.7168,-3.30729 -2.69705,-2.6993 -3.577801,-4.09621 -3.880961,-6.15537 l -0.17529,-1.190623 1.15617,1.631493 c 1.373191,1.93774 1.841861,2.32695 4.517471,3.75162 3.84403,2.04683 7.31634,2.75279 8.45798,1.71963 0.763,-0.69051 0.64752,-2.30539 -0.21329,-2.9825 l -0.69714,-0.54837 h 1.22631 c 1.0246,0 1.2263,-0.082 1.2263,-0.49831 0,-0.54958 -0.66379,-0.80999 -2.11666,-0.83037 l -0.92605,-0.013 0.66146,-0.3745 c 0.36381,-0.20597 1.16748,-0.4534 1.78594,-0.54983 0.94253,-0.14696 1.12448,-0.27286 1.12448,-0.778073 0,-0.42225 -0.19806,-0.65244 -0.66146,-0.76875 -0.3638,-0.0913 -0.66146,-0.34007 -0.66146,-0.55281 0,-0.38401 0.27576,-0.48387 2.18283,-0.79049 1.18112,-0.1899 1.19838,-0.30853 0.46708,-3.2109 -0.66134,-2.6247 -0.66194,-3.30801 -0.004,-4.59756 0.29104,-0.57049 0.52917,-1.51378 0.52917,-2.0962 0,-1.12755 -0.80215,-3.5091 -1.47733,-4.3861 -0.40165,-0.52172 -0.41493,-0.51889 -0.94457,0.20155 -0.76367,1.03878 -2.44272,1.94134 -4.58957,2.46709 -2.86485,0.70158 -4.02472,1.42296 -6.2927,3.91376 -1.13265,1.24392 -2.4182,2.47365 -2.85678,2.73272 -0.648471,0.38306 -0.768311,0.59492 -0.641581,1.13422 0.0857,0.36474 0.478291,0.93046 0.872401,1.25716 l 0.71657,0.594 -1.00482,0.001 c -0.747781,9.8e-4 -1.170791,-0.17777 -1.653641,-0.69878 -0.35686,-0.38505 -0.64883,-0.87519 -0.64883,-1.08919 0,-0.27439 -0.1755,-0.34207 -0.59531,-0.22956 -0.32742,0.0877 -1.10133,0.16116 -1.71979,0.16315 -0.98919,0.003 -1.12427,0.0752 -1.12274,0.59892 0.004,1.21062 1.53363,2.81107 2.71024,2.8349 0.79817,0.0162 0.50446,0.74841 -0.42297,1.05449 l -0.88598,0.2924 -0.31519,2.600573 c -0.68843,5.68021 -1.79622,8.53546 -4.06513,10.47756 -0.5956,0.50981 -1.03257,0.9762 -0.97104,1.03641 0.0615,0.0602 1.3025,0.25064 2.7577,0.42317 3.14198,0.37253 4.87594,1.18329 6.08542,2.84539 0.610241,0.83862 0.973971,1.094538 1.573261,1.106968 l 0.7795,0.0162 z m 8.80268,-24.129953 c -0.85023,-0.34958 -1.60684,-0.69657 -1.68135,-0.77108 -0.0745,-0.0745 0.79973,-0.42539 1.94276,-0.77973 1.88087,-0.58308 2.00729,-0.6632 1.33123,-0.84369 -0.41085,-0.10968 -1.661,-0.14294 -2.77812,-0.0739 l -2.03113,0.12552 1.32291,-0.61773 c 2.2805,-1.06488 5.70728,-0.73189 5.89676,0.573 0.0657,0.45262 -1.92929,3.04888 -2.32793,3.02951 -0.0711,-0.004 -0.82489,-0.29231 -1.67513,-0.64189 z m 3.63655,24.767333 c 0.13078,-0.2116 -0.91424,-1.12551 -2.07955,-1.81863 -0.65003,-0.38664 -8.87465,-0.47573 -8.87465,-0.0961 0,0.13418 0.49768,0.66996 1.10595,1.19062 l 1.10596,0.946658 h 4.30239 c 2.36631,0 4.36427,-0.10013 4.4399,-0.222508 z m 14.45596,-0.0483 c 0.61971,-0.383 -3.42771,-1.57746 -5.35296,-1.57975 -0.98428,-10e-4 -1.32718,0.12046 -1.65365,0.58657 -0.85881,1.226118 -0.67124,1.300218 3.1415,1.241018 1.95436,-0.0303 3.69366,-0.141868 3.86511,-0.247838 z m 54.09715,-0.49165 8.20208,-0.16353 -0.0174,-1.85208 c -0.0127,-1.34762 -0.20501,-2.32052 -0.7062,-3.57188 -1.14032,-2.84711 -1.1371,-3.18685 0.0664,-7.01146 0.5953,-1.89177 1.19743,-4.351643 1.33806,-5.466373 0.82085,-6.50657 -2.32841,-16.65797 -7.7025,-24.82842 -5.26196,-7.99998 -10.41852,-13.06563 -22.87631,-22.47303 -5.25121,-3.96541 -7.71689,-6.07227 -10.59595,-9.05398 -2.08527,-2.15961 -4.88217,-5.67548 -4.88217,-6.13717 0,-0.0871 -0.2285,-0.53418 -0.50778,-0.99342 l -0.50778,-0.83497 -0.78693,1.55618 c -0.43282,0.8559 -2.9036,5.24712 -5.49064,9.75827 -5.72423,9.98163 -6.10363,10.64062 -6.70252,11.64166 -0.51561,0.86185 -4.94221,8.51469 -9.37737,16.21189 l -2.78583,4.8348 0.63939,1.39661 c 0.57765,1.26176 0.63345,1.70188 0.57786,4.55791 -0.0613,3.15031 -0.0648,3.16594 -0.9984,4.49962 -0.51528,0.73608 -1.15395,1.90674 -1.41926,2.60147 -0.46976,1.23002 -0.46869,1.33018 0.0405,3.82104 0.57625,2.81878 0.49696,3.24784 -0.71621,3.87519 -0.83169,0.43008 -0.93449,0.65675 -1.20252,2.651473 -0.0978,0.72761 -0.40544,1.69416 -0.68371,2.1479 -0.27826,0.45374 -0.50594,1.19013 -0.50594,1.63642 0,1.25952 -0.43721,2.11872 -1.38246,2.71684 -0.75379,0.47696 -1.15041,0.53027 -3.04931,0.40987 l -2.18281,-0.13839 0.005,1.24389 0.005,1.24389 2.55064,0.85017 2.55063,0.85017 0.89295,-0.78403 c 0.9678,-0.84973 2.1731,-1.01146 4.01886,-0.53925 0.5262,0.13462 1.44468,0.37211 2.04106,0.52775 0.59637,0.15565 1.40618,0.58128 1.79957,0.94586 0.4214,0.39055 1.03039,0.66287 1.48234,0.66287 2.11309,0 5.90594,1.32955 8.41906,2.95123 l 1.23762,0.79862 20.50521,-0.19004 c 11.27787,-0.10453 24.19615,-0.26363 28.7073,-0.35357 z M 140.61178,27.627669 C 0,0 0,0 140.61178,27.627669 Z M 67.646749,98.673822 c 2.024,-0.60384 3.13948,-1.70662 4.37846,-4.32861 1.33803,-2.8316 2.55225,-4.1526 4.33005,-4.71085 0.81183,-0.25493 2.92644,-0.48697 5.4435,-0.59733 3.76413,-0.16504 4.24421,-0.24321 5.61628,-0.9145 1.84486,-0.9026 3.70724,-2.95435 4.42801,-4.87821 0.63793,-1.702793 0.70931,-3.093803 0.0853,-1.661763 -1.04221,2.391643 -3.47717,4.792963 -5.64657,5.568553 -0.53479,0.1912 -2.55995,0.36186 -4.79326,0.40393 -5.12592,0.0966 -6.51094,0.48616 -8.30646,2.33657 -0.89963,0.92712 -1.53746,1.91474 -1.98438,3.0726 -0.38803,1.00531 -1.09341,2.16247 -1.71695,2.81663 -1.74355,1.82918 -3.71317,2.08867 -8.66414,1.14145 -2.43485,-0.46584 -3.14696,-0.50842 -4.50433,-0.26932 -2.36268,0.41618 -2.36565,0.72316 -0.009,0.8999 1.13556,0.0852 3.13622,0.44305 4.44591,0.79532 2.80937,0.75565 5.09436,0.86352 6.89729,0.32563 z m 18.79245,-4.52875 c 3.23931,-0.93078 5.2432,-3.14402 6.18669,-6.833 0.29426,-1.15058 0.53258,-2.51939 0.52958,-3.04182 -0.005,-0.78763 -0.14073,-0.55035 -0.79752,1.3892 -1.58772,4.68865 -3.52141,6.52635 -8.98662,8.54049 l -1.71979,0.63381 1.71979,-0.15066 c 0.94589,-0.0829 2.32643,-0.32498 3.06787,-0.53802 z m -9.43332,-0.77161 c 1.23691,-0.62728 2.15873,-0.88681 4.64566,-1.30794 1.85078,-0.31341 5.34657,-1.39981 5.11149,-1.58853 -0.17847,-0.14326 -6.74608,0.66999 -7.62503,0.9442 -1.35432,0.4225 -2.76688,1.40253 -3.46059,2.40094 -0.5013,0.72148 -0.51803,0.79957 -0.0952,0.44423 0.28217,-0.23712 0.92281,-0.63892 1.42363,-0.8929 z m -0.89311,-7.43159 c 0.72511,-0.30297 1.68126,-0.40187 3.40575,-0.35227 3.63143,0.10444 4.16905,0.0931 5.21064,-0.10985 1.3488,-0.26282 3.02537,-1.5587 3.68212,-2.846033 l 0.5564,-1.09063 -0.89419,0.68202 c -1.69444,1.292423 -2.56234,1.492153 -6.48372,1.492153 -4.07233,0 -4.90198,0.24568 -6.10718,1.80849 -0.74458,0.96551 -0.72138,0.98083 0.63018,0.41612 z m 8.65372,-7.703073 c -0.65069,-0.99309 -0.65445,-4.18382 -0.006,-5.17334 0.27383,-0.41791 0.46302,-1.21103 0.46302,-1.941 v -1.23435 l -1.16645,0.13148 c -2.35117,0.26501 -3.82739,2.27065 -3.45363,4.6922 l 0.18495,1.19827 0.35381,-1.32292 c 0.19459,-0.7276 0.35906,-1.40306 0.36548,-1.501 0.0312,-0.4757 1.71146,-1.80629 2.28099,-1.80629 0.79146,0 0.78903,0.12989 -0.0273,1.45521 -0.47748,0.77522 -0.65221,1.43456 -0.6532,2.46479 -0.001,1.48519 0.25042,2.18514 1.13616,3.1576 0.75156,0.82515 1.09062,0.74682 0.52223,-0.12065 z m 4.55797,-0.0513 c -1.15374,-0.53532 -2.4709,-1.82074 -3.14499,-3.06921 l -0.42857,-0.79375 0.17026,0.79375 c 0.23842,1.11145 0.73461,2.02174 1.45993,2.6783 0.75354,0.68211 1.17412,0.84723 2.20795,0.86687 0.78097,0.0148 0.7767,0.007 -0.26458,-0.47597 z m 1.45997,-2.16686 c -0.94327,-0.43623 -2.00022,-1.05585 -2.34877,-1.37692 l -0.63374,-0.58376 0.42067,0.82766 c 0.57697,1.13521 1.92185,1.94328 3.21853,1.93386 l 1.05834,-0.008 z m 8.39576,-1.68651 c 1.572151,-0.73194 1.804821,-1.01793 0.53091,-0.65258 -1.71187,0.49096 -4.30481,0.28532 -6.90511,-0.54763 -1.36286,-0.43657 -2.8228,-0.79105 -3.24431,-0.78775 -0.67342,0.005 -0.56535,0.11436 0.8908,0.89916 2.69438,1.45215 3.52349,1.71274 5.48656,1.72445 1.42542,0.008 2.17208,-0.13793 3.24115,-0.63565 z m 3.070481,-3.2583 0.83212,-0.45546 -2.11667,-0.14454 c -1.164161,-0.0795 -3.372231,-0.36948 -4.906821,-0.64439 -3.74998,-0.67179 -4.71493,-0.32416 -1.57547,0.56757 1.23693,0.35133 2.84427,0.81015 3.57188,1.01959 1.51431,0.4359 2.993071,0.31507 4.194961,-0.34277 z m -12.002041,-3.21107 c 0.3063,-1.10264 0.321,-3.62424 0.0255,-4.38019 -0.18185,-0.46527 -0.28121,-0.40412 -0.92561,0.56963 -1.09016,1.64735 -1.52288,3.37055 -1.31277,5.22773 l 0.17872,1.5797 0.88532,-1.02416 c 0.48692,-0.56329 1.00388,-1.45101 1.14881,-1.97271 z m 15.744581,1.05232 c 0.74207,-0.1734 0.67316,-0.22389 -1.05834,-0.77546 -2.52854,-0.80548 -3.75794,-0.92314 -5.159371,-0.49377 l -1.19063,0.36478 2.116671,0.31668 c 1.16417,0.17417 2.47386,0.42325 2.91042,0.55352 0.93331,0.27849 1.31265,0.28395 2.38125,0.0342 z m 12.32686,-1.40931 c -0.14062,-0.36985 -0.36633,-0.74085 -0.50159,-0.82444 -0.13525,-0.0836 -0.0598,0.25861 0.16766,0.76046 0.46989,1.0367 0.72213,1.08502 0.33393,0.064 z m -21.440171,-0.39593 c 2.15813,-1.12743 2.0469,-1.46403 -0.44597,-1.34958 -1.65421,0.076 -2.2592,0.22172 -2.94228,0.70894 -1.01202,0.72183 -1.08025,1.02722 -0.26459,1.18432 1.43154,0.27573 2.34439,0.13986 3.65284,-0.54368 z m 14.085311,-0.48238 c 1.66361,-0.56685 2.83321,-1.91344 2.83321,-3.26194 0,-0.58655 -0.17002,-1.15783 -0.40183,-1.35022 -0.68767,-0.57072 -3.10627,-0.13863 -5.30489,0.94773 -1.09066,0.5389 -1.94948,1.00676 -1.90847,1.03967 0.041,0.0329 1.08659,-0.0957 2.32352,-0.28584 2.68088,-0.41208 4.23333,-0.46245 4.23333,-0.13736 0,0.49344 -1.89039,1.86955 -2.97309,2.16425 -0.7196,0.19588 -2.01396,0.24587 -3.57534,0.13809 -1.36248,-0.0941 -2.4474,-0.0656 -2.4474,0.0641 0,0.30998 3.25732,1.04208 4.78151,1.07466 0.6653,0.0142 1.76306,-0.1627 2.43945,-0.39317 z m -16.746951,-2.22485 c 0.58911,-1.15476 0.9833,-4.08752 0.58267,-4.33512 -0.14995,-0.0927 -0.69601,0.3261 -1.21345,0.93061 -0.99776,1.16566 -1.74948,3.24782 -1.74948,4.84581 v 0.96493 l 0.94346,-0.71961 c 0.51891,-0.39579 1.16547,-1.15477 1.4368,-1.68662 z m 24.078081,-0.0331 c 0,-0.56512 -1.82277,-2.61471 -2.32535,-2.61471 -0.55618,0 0.0714,1.22326 1.11429,2.17196 0.59333,0.53974 1.10854,0.98622 1.14492,0.99219 0.0364,0.006 0.0661,-0.24128 0.0661,-0.54944 z m -14.94897,-0.46193 c 0.58209,-0.26478 1.21104,-0.66599 1.39768,-0.89157 0.29741,-0.35947 0.12749,-0.44703 -1.37524,-0.70872 -2.13277,-0.37141 -3.644881,-0.1603 -5.181811,0.72342 l -1.19063,0.6846 1.05834,0.32233 c 1.6047,0.48873 4.064271,0.42828 5.291661,-0.13006 z m -5.581271,-1.49018 c 1.25221,-0.95511 2.299801,-3.03976 2.469831,-4.91484 0.0876,-0.96611 0.0404,-1.5686 -0.12289,-1.5686 -0.145821,0 -0.799741,0.57155 -1.453151,1.2701 -1.39168,1.48782 -2.20879,3.6033 -2.08986,5.41063 0.04,0.60813 0.16774,0.58706 1.19607,-0.19729 z m 11.940471,-1.83487 0.77951,-0.51081 -0.92352,-0.41063 c -1.29508,-0.57584 -4.5932,-0.54825 -5.92508,0.0496 -0.56805,0.25497 -0.96386,0.53253 -0.87958,0.61681 0.9801,0.9801 5.58432,1.1491 6.94867,0.25506 z m -6.16194,-1.91813 c 1.41342,-1.03754 2.5734,-3.00997 2.57829,-4.38408 0.003,-0.90252 -0.18883,-0.9067 -1.47753,-0.0322 -1.54967,1.05163 -2.54847,2.57427 -2.89287,4.41009 -0.23704,1.26354 0.0777,1.26462 1.79211,0.006 z m 12.34914,-0.365 c 0.15791,-0.7363 0.20844,-1.83066 0.11229,-2.43192 l -0.1748,-1.09319 -0.75185,0.90057 c -0.924,1.10681 -1.01298,2.52484 -0.21235,3.38421 0.29671,0.31849 0.58451,0.57906 0.63954,0.57906 0.055,0 0.22926,-0.60243 0.38717,-1.33873 z m -5.25681,-2.61836 c 1.29195,-1.29195 2.10655,-2.92208 1.46021,-2.92208 -0.48466,0 -1.9783,0.66505 -2.91363,1.29731 -0.84913,0.57399 -1.99619,2.2811 -1.99835,2.97404 -0.003,0.83224 2.08711,0.0154 3.45177,-1.34927 z"
       id="path1" /></g></svg>
